<mxfile host="app.diagrams.net" modified="2024-04-22T08:18:29.104Z" agent="Mozilla/5.0 (Windows NT 10.0; Win64; x64) AppleWebKit/537.36 (KHTML, like Gecko) Chrome/124.0.0.0 Safari/537.36" etag="gSnzGkQ_QEPebjp96T4C" version="24.2.7" type="github">
  <diagram name="Page-1" id="nvy7uOrWsjUSk5zU5eBN">
    <mxGraphModel dx="2607" dy="1429" grid="1" gridSize="10" guides="1" tooltips="1" connect="1" arrows="1" fold="1" page="1" pageScale="1" pageWidth="4681" pageHeight="3300" math="0" shadow="0">
      <root>
        <mxCell id="0" />
        <mxCell id="1" parent="0" />
        <mxCell id="oyg4kVYM0f8zrYxWqMyF-1" value="" style="edgeStyle=orthogonalEdgeStyle;rounded=0;orthogonalLoop=1;jettySize=auto;html=1;" edge="1" parent="1" source="oyg4kVYM0f8zrYxWqMyF-9" target="oyg4kVYM0f8zrYxWqMyF-11">
          <mxGeometry relative="1" as="geometry" />
        </mxCell>
        <mxCell id="oyg4kVYM0f8zrYxWqMyF-2" value="" style="edgeStyle=orthogonalEdgeStyle;rounded=0;orthogonalLoop=1;jettySize=auto;html=1;" edge="1" parent="1" source="oyg4kVYM0f8zrYxWqMyF-9" target="oyg4kVYM0f8zrYxWqMyF-12">
          <mxGeometry relative="1" as="geometry" />
        </mxCell>
        <mxCell id="oyg4kVYM0f8zrYxWqMyF-3" style="edgeStyle=orthogonalEdgeStyle;rounded=0;orthogonalLoop=1;jettySize=auto;html=1;entryX=0.5;entryY=1;entryDx=0;entryDy=0;" edge="1" parent="1" source="oyg4kVYM0f8zrYxWqMyF-9" target="oyg4kVYM0f8zrYxWqMyF-17">
          <mxGeometry relative="1" as="geometry">
            <mxPoint x="1890" y="840" as="targetPoint" />
            <Array as="points">
              <mxPoint x="1930" y="940" />
              <mxPoint x="2430" y="940" />
            </Array>
          </mxGeometry>
        </mxCell>
        <mxCell id="oyg4kVYM0f8zrYxWqMyF-4" value="" style="edgeStyle=orthogonalEdgeStyle;rounded=0;orthogonalLoop=1;jettySize=auto;html=1;exitX=0.167;exitY=1.013;exitDx=0;exitDy=0;exitPerimeter=0;" edge="1" parent="1" source="oyg4kVYM0f8zrYxWqMyF-9" target="oyg4kVYM0f8zrYxWqMyF-18">
          <mxGeometry relative="1" as="geometry">
            <mxPoint x="1850" y="1110" as="sourcePoint" />
            <Array as="points">
              <mxPoint x="1850" y="1110" />
              <mxPoint x="1590" y="1110" />
            </Array>
          </mxGeometry>
        </mxCell>
        <mxCell id="oyg4kVYM0f8zrYxWqMyF-5" value="" style="edgeStyle=orthogonalEdgeStyle;rounded=0;orthogonalLoop=1;jettySize=auto;html=1;" edge="1" parent="1" source="oyg4kVYM0f8zrYxWqMyF-9" target="oyg4kVYM0f8zrYxWqMyF-23">
          <mxGeometry relative="1" as="geometry">
            <Array as="points">
              <mxPoint x="1850" y="790" />
            </Array>
          </mxGeometry>
        </mxCell>
        <mxCell id="oyg4kVYM0f8zrYxWqMyF-6" value="" style="edgeStyle=orthogonalEdgeStyle;rounded=0;orthogonalLoop=1;jettySize=auto;html=1;" edge="1" parent="1" source="oyg4kVYM0f8zrYxWqMyF-9" target="oyg4kVYM0f8zrYxWqMyF-28">
          <mxGeometry relative="1" as="geometry">
            <Array as="points">
              <mxPoint x="1890" y="1100" />
              <mxPoint x="2260" y="1100" />
            </Array>
          </mxGeometry>
        </mxCell>
        <mxCell id="oyg4kVYM0f8zrYxWqMyF-7" style="edgeStyle=orthogonalEdgeStyle;rounded=0;orthogonalLoop=1;jettySize=auto;html=1;" edge="1" parent="1" source="oyg4kVYM0f8zrYxWqMyF-9">
          <mxGeometry relative="1" as="geometry">
            <mxPoint x="1890" y="1590" as="targetPoint" />
            <Array as="points">
              <mxPoint x="1890" y="1310" />
              <mxPoint x="1891" y="1530" />
            </Array>
          </mxGeometry>
        </mxCell>
        <mxCell id="oyg4kVYM0f8zrYxWqMyF-8" value="" style="edgeStyle=orthogonalEdgeStyle;rounded=0;orthogonalLoop=1;jettySize=auto;html=1;" edge="1" parent="1" source="oyg4kVYM0f8zrYxWqMyF-9" target="oyg4kVYM0f8zrYxWqMyF-29">
          <mxGeometry relative="1" as="geometry" />
        </mxCell>
        <mxCell id="oyg4kVYM0f8zrYxWqMyF-9" value="Corporate Office&amp;nbsp;" style="shape=hexagon;perimeter=hexagonPerimeter2;whiteSpace=wrap;html=1;fixedSize=1;" vertex="1" parent="1">
          <mxGeometry x="1830" y="1010" width="120" height="80" as="geometry" />
        </mxCell>
        <mxCell id="oyg4kVYM0f8zrYxWqMyF-10" value="" style="edgeStyle=orthogonalEdgeStyle;rounded=0;orthogonalLoop=1;jettySize=auto;html=1;" edge="1" parent="1" source="oyg4kVYM0f8zrYxWqMyF-11" target="oyg4kVYM0f8zrYxWqMyF-45">
          <mxGeometry relative="1" as="geometry" />
        </mxCell>
        <mxCell id="oyg4kVYM0f8zrYxWqMyF-11" value="Firewall" style="whiteSpace=wrap;html=1;" vertex="1" parent="1">
          <mxGeometry x="2380" y="1020" width="120" height="60" as="geometry" />
        </mxCell>
        <mxCell id="oyg4kVYM0f8zrYxWqMyF-12" value="Sales &amp;amp; Marketing Devices" style="whiteSpace=wrap;html=1;" vertex="1" parent="1">
          <mxGeometry x="1300" y="1020" width="220" height="60" as="geometry" />
        </mxCell>
        <mxCell id="oyg4kVYM0f8zrYxWqMyF-13" value="" style="edgeStyle=orthogonalEdgeStyle;rounded=0;orthogonalLoop=1;jettySize=auto;html=1;" edge="1" parent="1" source="oyg4kVYM0f8zrYxWqMyF-17">
          <mxGeometry relative="1" as="geometry">
            <mxPoint x="2730" y="710.0000000000002" as="targetPoint" />
          </mxGeometry>
        </mxCell>
        <mxCell id="oyg4kVYM0f8zrYxWqMyF-14" value="" style="edgeStyle=orthogonalEdgeStyle;rounded=0;orthogonalLoop=1;jettySize=auto;html=1;" edge="1" parent="1" source="oyg4kVYM0f8zrYxWqMyF-17" target="oyg4kVYM0f8zrYxWqMyF-51">
          <mxGeometry relative="1" as="geometry" />
        </mxCell>
        <mxCell id="oyg4kVYM0f8zrYxWqMyF-15" value="" style="edgeStyle=orthogonalEdgeStyle;rounded=0;orthogonalLoop=1;jettySize=auto;html=1;" edge="1" parent="1" source="oyg4kVYM0f8zrYxWqMyF-17" target="oyg4kVYM0f8zrYxWqMyF-52">
          <mxGeometry relative="1" as="geometry" />
        </mxCell>
        <mxCell id="oyg4kVYM0f8zrYxWqMyF-16" style="edgeStyle=orthogonalEdgeStyle;rounded=0;orthogonalLoop=1;jettySize=auto;html=1;exitX=0.25;exitY=0;exitDx=0;exitDy=0;entryX=0;entryY=0.5;entryDx=0;entryDy=0;" edge="1" parent="1" source="oyg4kVYM0f8zrYxWqMyF-17" target="oyg4kVYM0f8zrYxWqMyF-18">
          <mxGeometry relative="1" as="geometry">
            <Array as="points">
              <mxPoint x="2350" y="660" />
              <mxPoint x="2350" y="520" />
              <mxPoint x="1100" y="520" />
              <mxPoint x="1100" y="1560" />
            </Array>
          </mxGeometry>
        </mxCell>
        <mxCell id="oyg4kVYM0f8zrYxWqMyF-17" value="VPN Server" style="rounded=0;whiteSpace=wrap;html=1;" vertex="1" parent="1">
          <mxGeometry x="2350" y="640" width="160" height="60" as="geometry" />
        </mxCell>
        <mxCell id="oyg4kVYM0f8zrYxWqMyF-18" value="Administration Devices" style="whiteSpace=wrap;html=1;" vertex="1" parent="1">
          <mxGeometry x="1350" y="1530" width="120" height="60" as="geometry" />
        </mxCell>
        <mxCell id="oyg4kVYM0f8zrYxWqMyF-19" value="" style="edgeStyle=orthogonalEdgeStyle;rounded=0;orthogonalLoop=1;jettySize=auto;html=1;" edge="1" parent="1" source="oyg4kVYM0f8zrYxWqMyF-23" target="oyg4kVYM0f8zrYxWqMyF-59">
          <mxGeometry relative="1" as="geometry" />
        </mxCell>
        <mxCell id="oyg4kVYM0f8zrYxWqMyF-20" value="" style="edgeStyle=orthogonalEdgeStyle;rounded=0;orthogonalLoop=1;jettySize=auto;html=1;" edge="1" parent="1" source="oyg4kVYM0f8zrYxWqMyF-23" target="oyg4kVYM0f8zrYxWqMyF-60">
          <mxGeometry relative="1" as="geometry" />
        </mxCell>
        <mxCell id="oyg4kVYM0f8zrYxWqMyF-21" value="" style="edgeStyle=orthogonalEdgeStyle;rounded=0;orthogonalLoop=1;jettySize=auto;html=1;" edge="1" parent="1" source="oyg4kVYM0f8zrYxWqMyF-23" target="oyg4kVYM0f8zrYxWqMyF-61">
          <mxGeometry relative="1" as="geometry" />
        </mxCell>
        <mxCell id="oyg4kVYM0f8zrYxWqMyF-22" style="edgeStyle=orthogonalEdgeStyle;rounded=0;orthogonalLoop=1;jettySize=auto;html=1;entryX=0.5;entryY=0;entryDx=0;entryDy=0;exitX=0.5;exitY=0;exitDx=0;exitDy=0;" edge="1" parent="1" source="oyg4kVYM0f8zrYxWqMyF-23" target="oyg4kVYM0f8zrYxWqMyF-45">
          <mxGeometry relative="1" as="geometry">
            <mxPoint x="2020" y="590" as="targetPoint" />
          </mxGeometry>
        </mxCell>
        <mxCell id="oyg4kVYM0f8zrYxWqMyF-23" value="Retail Shop" style="whiteSpace=wrap;html=1;" vertex="1" parent="1">
          <mxGeometry x="1620" y="760" width="120" height="60" as="geometry" />
        </mxCell>
        <mxCell id="oyg4kVYM0f8zrYxWqMyF-24" value="" style="edgeStyle=orthogonalEdgeStyle;rounded=0;orthogonalLoop=1;jettySize=auto;html=1;" edge="1" parent="1" source="oyg4kVYM0f8zrYxWqMyF-28" target="oyg4kVYM0f8zrYxWqMyF-38">
          <mxGeometry relative="1" as="geometry" />
        </mxCell>
        <mxCell id="oyg4kVYM0f8zrYxWqMyF-25" value="" style="edgeStyle=orthogonalEdgeStyle;rounded=0;orthogonalLoop=1;jettySize=auto;html=1;" edge="1" parent="1" source="oyg4kVYM0f8zrYxWqMyF-28" target="oyg4kVYM0f8zrYxWqMyF-39">
          <mxGeometry relative="1" as="geometry" />
        </mxCell>
        <mxCell id="oyg4kVYM0f8zrYxWqMyF-26" value="" style="edgeStyle=orthogonalEdgeStyle;rounded=0;orthogonalLoop=1;jettySize=auto;html=1;" edge="1" parent="1" source="oyg4kVYM0f8zrYxWqMyF-28" target="oyg4kVYM0f8zrYxWqMyF-40">
          <mxGeometry relative="1" as="geometry">
            <Array as="points">
              <mxPoint x="2640" y="1490" />
              <mxPoint x="2480" y="1490" />
            </Array>
          </mxGeometry>
        </mxCell>
        <mxCell id="oyg4kVYM0f8zrYxWqMyF-27" value="" style="edgeStyle=orthogonalEdgeStyle;rounded=0;orthogonalLoop=1;jettySize=auto;html=1;" edge="1" parent="1" source="oyg4kVYM0f8zrYxWqMyF-28" target="oyg4kVYM0f8zrYxWqMyF-41">
          <mxGeometry relative="1" as="geometry" />
        </mxCell>
        <mxCell id="oyg4kVYM0f8zrYxWqMyF-28" value="Database Server" style="whiteSpace=wrap;html=1;" vertex="1" parent="1">
          <mxGeometry x="2580" y="1500" width="120" height="60" as="geometry" />
        </mxCell>
        <mxCell id="oyg4kVYM0f8zrYxWqMyF-29" value="Finance Devices" style="whiteSpace=wrap;html=1;" vertex="1" parent="1">
          <mxGeometry x="1880" y="620" width="120" height="60" as="geometry" />
        </mxCell>
        <mxCell id="oyg4kVYM0f8zrYxWqMyF-30" style="edgeStyle=orthogonalEdgeStyle;rounded=0;orthogonalLoop=1;jettySize=auto;html=1;exitX=0.75;exitY=0;exitDx=0;exitDy=0;entryX=0.25;entryY=1;entryDx=0;entryDy=0;" edge="1" parent="1" source="oyg4kVYM0f8zrYxWqMyF-37" target="oyg4kVYM0f8zrYxWqMyF-45">
          <mxGeometry relative="1" as="geometry" />
        </mxCell>
        <mxCell id="oyg4kVYM0f8zrYxWqMyF-31" value="" style="edgeStyle=orthogonalEdgeStyle;rounded=0;orthogonalLoop=1;jettySize=auto;html=1;" edge="1" parent="1" source="oyg4kVYM0f8zrYxWqMyF-37" target="oyg4kVYM0f8zrYxWqMyF-53">
          <mxGeometry relative="1" as="geometry" />
        </mxCell>
        <mxCell id="oyg4kVYM0f8zrYxWqMyF-32" value="" style="edgeStyle=orthogonalEdgeStyle;rounded=0;orthogonalLoop=1;jettySize=auto;html=1;" edge="1" parent="1" source="oyg4kVYM0f8zrYxWqMyF-37" target="oyg4kVYM0f8zrYxWqMyF-54">
          <mxGeometry relative="1" as="geometry" />
        </mxCell>
        <mxCell id="oyg4kVYM0f8zrYxWqMyF-33" value="" style="edgeStyle=orthogonalEdgeStyle;rounded=0;orthogonalLoop=1;jettySize=auto;html=1;" edge="1" parent="1" source="oyg4kVYM0f8zrYxWqMyF-37" target="oyg4kVYM0f8zrYxWqMyF-55">
          <mxGeometry relative="1" as="geometry" />
        </mxCell>
        <mxCell id="oyg4kVYM0f8zrYxWqMyF-34" value="" style="edgeStyle=orthogonalEdgeStyle;rounded=0;orthogonalLoop=1;jettySize=auto;html=1;" edge="1" parent="1" source="oyg4kVYM0f8zrYxWqMyF-37" target="oyg4kVYM0f8zrYxWqMyF-56">
          <mxGeometry relative="1" as="geometry" />
        </mxCell>
        <mxCell id="oyg4kVYM0f8zrYxWqMyF-35" value="" style="edgeStyle=orthogonalEdgeStyle;rounded=0;orthogonalLoop=1;jettySize=auto;html=1;" edge="1" parent="1" source="oyg4kVYM0f8zrYxWqMyF-37" target="oyg4kVYM0f8zrYxWqMyF-57">
          <mxGeometry relative="1" as="geometry" />
        </mxCell>
        <mxCell id="oyg4kVYM0f8zrYxWqMyF-36" value="" style="edgeStyle=orthogonalEdgeStyle;rounded=0;orthogonalLoop=1;jettySize=auto;html=1;" edge="1" parent="1" source="oyg4kVYM0f8zrYxWqMyF-37" target="oyg4kVYM0f8zrYxWqMyF-58">
          <mxGeometry relative="1" as="geometry" />
        </mxCell>
        <mxCell id="oyg4kVYM0f8zrYxWqMyF-37" value="Premium Gym Outlet" style="rounded=1;whiteSpace=wrap;html=1;" vertex="1" parent="1">
          <mxGeometry x="1770" y="1600" width="260" height="60" as="geometry" />
        </mxCell>
        <mxCell id="oyg4kVYM0f8zrYxWqMyF-38" value="Membership Database" style="whiteSpace=wrap;html=1;" vertex="1" parent="1">
          <mxGeometry x="2580" y="1790" width="120" height="60" as="geometry" />
        </mxCell>
        <mxCell id="oyg4kVYM0f8zrYxWqMyF-39" value="&lt;div&gt;Fitness Classes &amp;amp; Training Programs&lt;/div&gt;&lt;div&gt;&lt;br&gt;&lt;/div&gt;" style="whiteSpace=wrap;html=1;" vertex="1" parent="1">
          <mxGeometry x="2800" y="1790" width="120" height="60" as="geometry" />
        </mxCell>
        <mxCell id="oyg4kVYM0f8zrYxWqMyF-40" value="Trainer Schedules" style="whiteSpace=wrap;html=1;" vertex="1" parent="1">
          <mxGeometry x="2420" y="1790" width="120" height="60" as="geometry" />
        </mxCell>
        <mxCell id="oyg4kVYM0f8zrYxWqMyF-41" value="Personalised Workout Plans" style="whiteSpace=wrap;html=1;" vertex="1" parent="1">
          <mxGeometry x="2710" y="1930" width="120" height="60" as="geometry" />
        </mxCell>
        <mxCell id="oyg4kVYM0f8zrYxWqMyF-42" value="" style="edgeStyle=orthogonalEdgeStyle;rounded=0;orthogonalLoop=1;jettySize=auto;html=1;" edge="1" parent="1" target="oyg4kVYM0f8zrYxWqMyF-46">
          <mxGeometry relative="1" as="geometry">
            <mxPoint x="2710" y="1050" as="sourcePoint" />
          </mxGeometry>
        </mxCell>
        <mxCell id="oyg4kVYM0f8zrYxWqMyF-43" value="" style="edgeStyle=orthogonalEdgeStyle;rounded=0;orthogonalLoop=1;jettySize=auto;html=1;entryX=0;entryY=0.5;entryDx=0;entryDy=0;" edge="1" parent="1" source="oyg4kVYM0f8zrYxWqMyF-45" target="oyg4kVYM0f8zrYxWqMyF-47">
          <mxGeometry relative="1" as="geometry">
            <mxPoint x="2670" y="1240" as="targetPoint" />
          </mxGeometry>
        </mxCell>
        <mxCell id="oyg4kVYM0f8zrYxWqMyF-44" value="" style="edgeStyle=orthogonalEdgeStyle;rounded=0;orthogonalLoop=1;jettySize=auto;html=1;" edge="1" parent="1" source="oyg4kVYM0f8zrYxWqMyF-45" target="oyg4kVYM0f8zrYxWqMyF-48">
          <mxGeometry relative="1" as="geometry" />
        </mxCell>
        <mxCell id="oyg4kVYM0f8zrYxWqMyF-45" value="&lt;div&gt;Switch&lt;/div&gt;&lt;div&gt;&lt;br&gt;&lt;/div&gt;" style="whiteSpace=wrap;html=1;" vertex="1" parent="1">
          <mxGeometry x="2580" y="1020" width="120" height="60" as="geometry" />
        </mxCell>
        <mxCell id="oyg4kVYM0f8zrYxWqMyF-46" value="Wireless Access Points" style="whiteSpace=wrap;html=1;" vertex="1" parent="1">
          <mxGeometry x="2880" y="1020" width="120" height="60" as="geometry" />
        </mxCell>
        <mxCell id="oyg4kVYM0f8zrYxWqMyF-47" value="&lt;div&gt;IT Support Team Devices&lt;/div&gt;&lt;div&gt;&lt;br&gt;&lt;/div&gt;" style="whiteSpace=wrap;html=1;" vertex="1" parent="1">
          <mxGeometry x="2850" y="1280" width="180" height="60" as="geometry" />
        </mxCell>
        <mxCell id="oyg4kVYM0f8zrYxWqMyF-48" value="&lt;div&gt;Guest Devices&lt;/div&gt;&lt;div&gt;&lt;br&gt;&lt;/div&gt;" style="whiteSpace=wrap;html=1;" vertex="1" parent="1">
          <mxGeometry x="2580" y="1370" width="120" height="60" as="geometry" />
        </mxCell>
        <mxCell id="oyg4kVYM0f8zrYxWqMyF-49" value="" style="endArrow=classic;html=1;rounded=0;entryX=0.5;entryY=1;entryDx=0;entryDy=0;" edge="1" parent="1" target="oyg4kVYM0f8zrYxWqMyF-17">
          <mxGeometry width="50" height="50" relative="1" as="geometry">
            <mxPoint x="2640" y="1020" as="sourcePoint" />
            <mxPoint x="2690" y="970" as="targetPoint" />
          </mxGeometry>
        </mxCell>
        <mxCell id="oyg4kVYM0f8zrYxWqMyF-50" value="Remote Users" style="whiteSpace=wrap;html=1;rounded=0;" vertex="1" parent="1">
          <mxGeometry x="2690" y="710" width="120" height="60" as="geometry" />
        </mxCell>
        <mxCell id="oyg4kVYM0f8zrYxWqMyF-51" value="Sales &amp;amp; Marketing Devices" style="whiteSpace=wrap;html=1;rounded=0;" vertex="1" parent="1">
          <mxGeometry x="2370" y="460" width="120" height="60" as="geometry" />
        </mxCell>
        <mxCell id="oyg4kVYM0f8zrYxWqMyF-52" value="Finance Devices" style="whiteSpace=wrap;html=1;rounded=0;" vertex="1" parent="1">
          <mxGeometry x="2530" y="480" width="120" height="60" as="geometry" />
        </mxCell>
        <mxCell id="oyg4kVYM0f8zrYxWqMyF-53" value="Monitoring and Logging Systems" style="rounded=1;whiteSpace=wrap;html=1;" vertex="1" parent="1">
          <mxGeometry x="1160" y="2250" width="180" height="60" as="geometry" />
        </mxCell>
        <mxCell id="oyg4kVYM0f8zrYxWqMyF-54" value="Audio-Visual Displays" style="rounded=1;whiteSpace=wrap;html=1;" vertex="1" parent="1">
          <mxGeometry x="1370" y="2250" width="170" height="60" as="geometry" />
        </mxCell>
        <mxCell id="oyg4kVYM0f8zrYxWqMyF-55" value="Climate and Lighting Controls" style="rounded=1;whiteSpace=wrap;html=1;" vertex="1" parent="1">
          <mxGeometry x="1570" y="2250" width="190" height="60" as="geometry" />
        </mxCell>
        <mxCell id="oyg4kVYM0f8zrYxWqMyF-56" value="Vending Machines" style="rounded=1;whiteSpace=wrap;html=1;" vertex="1" parent="1">
          <mxGeometry x="2260" y="2250" width="150" height="60" as="geometry" />
        </mxCell>
        <mxCell id="oyg4kVYM0f8zrYxWqMyF-57" value="Access Card Control System" style="rounded=1;whiteSpace=wrap;html=1;" vertex="1" parent="1">
          <mxGeometry x="1825" y="2250" width="150" height="60" as="geometry" />
        </mxCell>
        <mxCell id="oyg4kVYM0f8zrYxWqMyF-58" value="Locker" style="rounded=1;whiteSpace=wrap;html=1;" vertex="1" parent="1">
          <mxGeometry x="2070" y="2250" width="150" height="60" as="geometry" />
        </mxCell>
        <mxCell id="oyg4kVYM0f8zrYxWqMyF-59" value="&lt;div&gt;Point-of-Sale Equipment&lt;/div&gt;&lt;div&gt;&lt;br&gt;&lt;/div&gt;" style="whiteSpace=wrap;html=1;" vertex="1" parent="1">
          <mxGeometry x="1270" y="590" width="120" height="60" as="geometry" />
        </mxCell>
        <mxCell id="oyg4kVYM0f8zrYxWqMyF-60" value="Health Resources" style="whiteSpace=wrap;html=1;" vertex="1" parent="1">
          <mxGeometry x="1430" y="590" width="120" height="60" as="geometry" />
        </mxCell>
        <mxCell id="oyg4kVYM0f8zrYxWqMyF-61" value="Inventory Database" style="whiteSpace=wrap;html=1;" vertex="1" parent="1">
          <mxGeometry x="1620" y="860" width="120" height="60" as="geometry" />
        </mxCell>
      </root>
    </mxGraphModel>
  </diagram>
</mxfile>
